<?xml version="1.0" encoding="UTF-8"?><svg width="58" height="616" viewBox="0 0 58 616" xmlns="http://www.w3.org/2000/svg" xmlns:xlink="http://www.w3.org/1999/xlink"><svg width="47" height="47" viewBox="-306 -517 612 822" id="Commons-logo_sister" xmlns="http://www.w3.org/2000/svg"><defs><clipPath id="aa"><circle r="298"/></clipPath></defs><circle r="100" fill="#900"/><g fill="#069"><g id="ab" clip-path="url(#aa)"><path d="M-11 180v118h22V180"/><path d="M-43 185l43-75 43 75"/></g><g id="ac"><use xlink:href="#ab" transform="rotate(45)"/><use xlink:href="#ab" transform="rotate(90)"/><use xlink:href="#ab" transform="rotate(135)"/></g><use xlink:href="#ac" transform="scale(-1 1)"/><path fill="none" stroke="#069" stroke-width="84" d="M-181.02-181.02a256 256 0 10362.04 0c-70.71-70.71-177.49-34.65-198.7-190.21"/><path d="M-23-515s-36 135-80 185 116-62 170-5-90-180-90-180z"/></g></svg><svg width="42" height="42" version="1.1" id="MediaWiki-logo_sister" viewBox="-1 -1 42 42" y="47" xmlns="http://www.w3.org/2000/svg"><defs id="bdefs11"><linearGradient id="bgradient" gradientUnits="userSpaceOnUse" x1="0" x2="100" y1="100" y2="0"><stop offset="0%" stop-color="#0a00b2" id="bstop2"/><stop offset="50%" stop-color="red" id="bstop4"/><stop offset="100%" stop-color="#fffc00" id="bstop6"/></linearGradient><linearGradient xlink:href="#bgradient" id="blinearGradient923" gradientUnits="userSpaceOnUse" x1="0" y1="100" x2="100" y2="0"/><linearGradient xlink:href="#bgradient" id="blinearGradient925" gradientUnits="userSpaceOnUse" x1="0" y1="100" x2="100" y2="0"/><linearGradient xlink:href="#bgradient" id="blinearGradient927" gradientUnits="userSpaceOnUse" x1="0" y1="100" x2="100" y2="0"/><linearGradient xlink:href="#bgradient" id="blinearGradient929" gradientUnits="userSpaceOnUse" x1="0" y1="100" x2="100" y2="0"/><linearGradient xlink:href="#bgradient" id="blinearGradient931" gradientUnits="userSpaceOnUse" x1="0" y1="100" x2="100" y2="0"/><linearGradient xlink:href="#bgradient" id="blinearGradient933" gradientUnits="userSpaceOnUse" x1="0" y1="100" x2="100" y2="0"/><linearGradient xlink:href="#bgradient" id="blinearGradient935" gradientUnits="userSpaceOnUse" x1="0" y1="100" x2="100" y2="0"/><linearGradient xlink:href="#bgradient" id="blinearGradient937" gradientUnits="userSpaceOnUse" x1="0" y1="100" x2="100" y2="0"/><linearGradient xlink:href="#bgradient" id="blinearGradient939" gradientUnits="userSpaceOnUse" x1="0" y1="100" x2="100" y2="0"/><linearGradient xlink:href="#bgradient" id="blinearGradient941" gradientUnits="userSpaceOnUse" x1="0" y1="100" x2="100" y2="0"/><linearGradient xlink:href="#bgradient" id="blinearGradient943" gradientUnits="userSpaceOnUse" x1="0" y1="100" x2="100" y2="0"/><linearGradient xlink:href="#bgradient" id="blinearGradient945" gradientUnits="userSpaceOnUse" x1="0" y1="100" x2="100" y2="0"/><linearGradient xlink:href="#bgradient" id="blinearGradient947" gradientUnits="userSpaceOnUse" x1="0" y1="100" x2="100" y2="0"/><linearGradient xlink:href="#bgradient" id="blinearGradient949" gradientUnits="userSpaceOnUse" x1="0" y1="100" x2="100" y2="0"/><linearGradient xlink:href="#bgradient" id="blinearGradient951" gradientUnits="userSpaceOnUse" x1="0" y1="100" x2="100" y2="0"/><linearGradient xlink:href="#bgradient" id="blinearGradient953" gradientUnits="userSpaceOnUse" x1="0" y1="100" x2="100" y2="0"/><linearGradient xlink:href="#bgradient" id="blinearGradient955" gradientUnits="userSpaceOnUse" x1="0" y1="100" x2="100" y2="0"/><linearGradient xlink:href="#bgradient" id="blinearGradient957" gradientUnits="userSpaceOnUse" x1="0" y1="100" x2="100" y2="0"/><linearGradient xlink:href="#bgradient" id="blinearGradient959" gradientUnits="userSpaceOnUse" x1="0" y1="100" x2="100" y2="0"/><linearGradient xlink:href="#bgradient" id="blinearGradient961" gradientUnits="userSpaceOnUse" x1="0" y1="100" x2="100" y2="0"/><linearGradient xlink:href="#bgradient" id="blinearGradient963" gradientUnits="userSpaceOnUse" x1="0" y1="100" x2="100" y2="0"/><linearGradient xlink:href="#bgradient" id="blinearGradient965" gradientUnits="userSpaceOnUse" x1="0" y1="100" x2="100" y2="0"/><linearGradient xlink:href="#bgradient" id="blinearGradient967" gradientUnits="userSpaceOnUse" x1="0" y1="100" x2="100" y2="0"/><linearGradient xlink:href="#bgradient" id="blinearGradient969" gradientUnits="userSpaceOnUse" x1="0" y1="100" x2="100" y2="0"/><linearGradient xlink:href="#bgradient" id="blinearGradient971" gradientUnits="userSpaceOnUse" x1="0" y1="100" x2="100" y2="0"/><style id="bstyle9">.bpetal{opacity:.65}</style></defs><g id="bpetals" transform="matrix(.4 0 0 .4 0 .106)" fill="url(#blinearGradient971)"><path class="bpetal" d="M33.6 14.8a16.938 16.938 0 003.116 11.142 11.457 11.457 0 006.858 4.3 3.033 3.033 0 002.385-.713 11.924 11.924 0 003.634-10.837c-1.257-7.54-6.19-12.43-12.4-17A32.468 32.468 0 0033.6 14.8z" id="bpath13" opacity=".65" fill="url(#blinearGradient923)"/><path class="bpetal" d="M25.117 20.232a16.938 16.938 0 005.893 9.956 11.457 11.457 0 007.738 2.381 3.033 3.033 0 002.119-1.306 11.924 11.924 0 00.705-11.409C38.406 12.9 32.376 9.449 25.2 6.642a32.468 32.468 0 00-.083 13.59z" id="bpath15" opacity=".65" fill="url(#blinearGradient925)"/><path class="bpetal" d="M18.329 27.677a16.937 16.937 0 008.271 8.092 11.457 11.457 0 008.09.3 3.033 3.033 0 001.709-1.81 11.924 11.924 0 00-2.271-11.2c-4.859-5.9-11.576-7.67-19.237-8.523a32.466 32.466 0 003.438 13.141z" id="bpath17" opacity=".65" fill="url(#blinearGradient927)"/><path class="bpetal" d="M13.7 36.626A16.938 16.938 0 0023.781 42.3a11.457 11.457 0 007.891-1.807 3.033 3.033 0 001.182-2.193 11.924 11.924 0 00-5.093-10.233c-6.221-4.443-13.167-4.412-20.787-3.254A32.468 32.468 0 0013.7 36.626z" id="bpath19" opacity=".65" fill="url(#blinearGradient929)"/><path class="bpetal" d="M11.543 46.468a16.938 16.938 0 0011.208 2.873 11.457 11.457 0 007.155-3.788 3.034 3.034 0 00.575-2.422 11.924 11.924 0 00-7.568-8.566c-7.16-2.681-13.861-.854-20.923 2.235a32.468 32.468 0 009.553 9.668z" id="bpath21" opacity=".65" fill="url(#blinearGradient931)"/><path class="bpetal" d="M12.008 56.532a16.938 16.938 0 0011.569-.126 11.457 11.457 0 005.931-5.51 3.033 3.033 0 00-.072-2.488 11.924 11.924 0 00-9.527-6.315C12.3 41.356 6.3 44.855.279 49.669a32.467 32.467 0 0011.729 6.863z" id="bpath23" opacity=".65" fill="url(#blinearGradient933)"/><path class="bpetal" d="M15.062 66.134A16.938 16.938 0 0026.2 63.018a11.457 11.457 0 004.3-6.858 3.033 3.033 0 00-.713-2.385 11.924 11.924 0 00-10.837-3.634c-7.54 1.257-12.43 6.19-17 12.4a32.468 32.468 0 0013.112 3.593z" id="bpath25" opacity=".65" fill="url(#blinearGradient935)"/><path class="bpetal" d="M20.5 74.618a16.938 16.938 0 009.956-5.893 11.457 11.457 0 002.381-7.738 3.033 3.033 0 00-1.306-2.119 11.925 11.925 0 00-11.409-.705c-6.958 3.166-10.4 9.2-13.212 16.376a32.466 32.466 0 0013.59.079z" id="bpath27" opacity=".65" fill="url(#blinearGradient937)"/><path class="bpetal" d="M27.943 81.406a16.938 16.938 0 008.092-8.269 11.457 11.457 0 00.3-8.09 3.033 3.033 0 00-1.81-1.709 11.924 11.924 0 00-11.2 2.271c-5.9 4.859-7.67 11.576-8.523 19.237a32.467 32.467 0 0013.141-3.44z" id="bpath29" opacity=".65" fill="url(#blinearGradient939)"/><path class="bpetal" d="M36.891 86.035a16.938 16.938 0 005.676-10.082 11.457 11.457 0 00-1.807-7.891 3.033 3.033 0 00-2.191-1.182 11.924 11.924 0 00-10.233 5.094c-4.443 6.221-4.412 13.167-3.254 20.787a32.467 32.467 0 0011.809-6.726z" id="bpath31" opacity=".65" fill="url(#blinearGradient941)"/><path class="bpetal" d="M46.733 88.191a16.937 16.937 0 002.873-11.207 11.457 11.457 0 00-3.788-7.155 3.033 3.033 0 00-2.422-.575 11.924 11.924 0 00-8.566 7.568c-2.681 7.159-.854 13.86 2.237 20.921a32.465 32.465 0 009.666-9.552z" id="bpath33" opacity=".65" fill="url(#blinearGradient943)"/><path class="bpetal" d="M56.8 87.726a16.937 16.937 0 00-.125-11.569 11.457 11.457 0 00-5.511-5.931 3.033 3.033 0 00-2.488.072 11.924 11.924 0 00-6.315 9.528c-.737 7.609 2.762 13.609 7.576 19.629A32.466 32.466 0 0056.8 87.726z" id="bpath35" opacity=".65" fill="url(#blinearGradient945)"/><path class="bpetal" d="M66.4 84.672a16.938 16.938 0 00-3.116-11.142 11.457 11.457 0 00-6.858-4.3 3.033 3.033 0 00-2.385.713 11.924 11.924 0 00-3.634 10.837c1.257 7.54 6.19 12.43 12.4 17A32.468 32.468 0 0066.4 84.672z" id="bpath37" opacity=".65" fill="url(#blinearGradient947)"/><path class="bpetal" d="M74.883 79.237a16.937 16.937 0 00-5.893-9.956 11.456 11.456 0 00-7.738-2.381 3.033 3.033 0 00-2.119 1.306 11.924 11.924 0 00-.705 11.409c3.166 6.958 9.2 10.4 16.375 13.212a32.468 32.468 0 00.08-13.59z" id="bpath39" opacity=".65" fill="url(#blinearGradient949)"/><path class="bpetal" d="M81.671 71.792A16.938 16.938 0 0073.4 63.7a11.457 11.457 0 00-8.09-.3 3.033 3.033 0 00-1.708 1.81 11.924 11.924 0 002.271 11.2c4.859 5.9 11.576 7.67 19.237 8.523a32.466 32.466 0 00-3.439-13.141z" id="bpath41" opacity=".65" fill="url(#blinearGradient951)"/><path class="bpetal" d="M86.3 62.843a16.938 16.938 0 00-10.082-5.676 11.457 11.457 0 00-7.891 1.807 3.033 3.033 0 00-1.182 2.191A11.924 11.924 0 0072.239 71.4c6.221 4.443 13.167 4.412 20.787 3.254A32.467 32.467 0 0086.3 62.843z" id="bpath43" opacity=".65" fill="url(#blinearGradient953)"/><path class="bpetal" d="M88.457 53a16.938 16.938 0 00-11.207-2.873 11.457 11.457 0 00-7.155 3.788 3.033 3.033 0 00-.574 2.422 11.925 11.925 0 007.567 8.563c7.158 2.681 13.86.854 20.921-2.237A32.467 32.467 0 0088.457 53z" id="bpath45" opacity=".65" fill="url(#blinearGradient955)"/><path class="bpetal" d="M87.992 42.936a16.938 16.938 0 00-11.569.126 11.457 11.457 0 00-5.931 5.511 3.033 3.033 0 00.072 2.488 11.924 11.924 0 009.527 6.315c7.609.737 13.609-2.762 19.63-7.576a32.468 32.468 0 00-11.729-6.864z" id="bpath47" opacity=".65" fill="url(#blinearGradient957)"/><path class="bpetal" d="M84.938 33.335A16.938 16.938 0 0073.8 36.451a11.457 11.457 0 00-4.3 6.858 3.033 3.033 0 00.714 2.385 11.924 11.924 0 0010.837 3.634c7.54-1.257 12.43-6.19 17-12.4a32.466 32.466 0 00-13.113-3.593z" id="bpath49" opacity=".65" fill="url(#blinearGradient959)"/><path class="bpetal" d="M79.5 24.851a16.938 16.938 0 00-9.956 5.893 11.457 11.457 0 00-2.381 7.738 3.033 3.033 0 001.309 2.118 11.924 11.924 0 0011.409.705c6.958-3.166 10.4-9.2 13.212-16.375a32.468 32.468 0 00-13.593-.079z" id="bpath51" opacity=".65" fill="url(#blinearGradient961)"/><path class="bpetal" d="M72.057 18.063a16.938 16.938 0 00-8.092 8.269 11.457 11.457 0 00-.3 8.09 3.033 3.033 0 001.81 1.709 11.924 11.924 0 0011.2-2.271c5.9-4.859 7.67-11.576 8.523-19.237a32.467 32.467 0 00-13.141 3.44z" id="bpath53" opacity=".65" fill="url(#blinearGradient963)"/><path class="bpetal" d="M63.109 13.434a16.937 16.937 0 00-5.676 10.082 11.457 11.457 0 001.807 7.891 3.033 3.033 0 002.191 1.182A11.924 11.924 0 0071.664 27.5c4.443-6.221 4.412-13.167 3.254-20.787a32.466 32.466 0 00-11.809 6.721z" id="bpath55" opacity=".65" fill="url(#blinearGradient965)"/><path class="bpetal" d="M53.267 11.278a16.937 16.937 0 00-2.873 11.207 11.456 11.456 0 003.788 7.155 3.033 3.033 0 002.422.575 11.924 11.924 0 008.566-7.568c2.681-7.159.854-13.86-2.237-20.921a32.466 32.466 0 00-9.666 9.552z" id="bpath57" opacity=".65" fill="url(#blinearGradient967)"/><path class="bpetal" d="M43.2 11.743a16.938 16.938 0 00.126 11.569 11.457 11.457 0 005.511 5.931 3.033 3.033 0 002.488-.072 11.924 11.924 0 006.315-9.528c.739-7.609-2.76-13.609-7.574-19.629A32.468 32.468 0 0043.2 11.743z" id="bpath59" opacity=".65" fill="url(#blinearGradient969)"/></g></svg><svg width="37" height="37" viewBox="-1 -1 902 902" id="Meta-Wiki-logo_sister" y="89" xmlns="http://www.w3.org/2000/svg"><path fill="#396" d="M316.6 181.29a298.24 298.24 0 00-84.9 62.92c11.84.23 23.75-.3 35.67-1.64a323.85 323.85 0 0149.24-61.28zm28.16-12.21c25.37-1.2 50.57.53 75.13 5.15a272.66 272.66 0 0023.77-24.2 298.19 298.19 0 00-98.9 19.05zm-15.58 27.53a303.35 303.35 0 00-35.33 41.7 275.41 275.41 0 0047.07-14.63l-11.74-27.07zm18.37-7.9l11.62 26.78a274.21 274.21 0 0040.07-24.47 303.55 303.55 0 00-51.69-2.31zm121.5-38.12a293.5 293.5 0 01-25.66 28.98 323.06 323.06 0 01123.72 63.92 428.64 428.64 0 0036.36-51.27 301.65 301.65 0 00-134.42-41.63zM215.02 263.43a301.51 301.51 0 00-59.17 127.59 428.48 428.48 0 0063.1 7.44 322.99 322.99 0 0136.4-134.74c-13.5.84-26.99.72-40.33-.29zm210.67-67.8a292.48 292.48 0 01-58.6 38.15l53.6 123.56a426.74 426.74 0 00133.39-98.8 302.91 302.91 0 00-128.4-62.92zM279.2 261.2a302.59 302.59 0 00-40.38 137.63 427.1 427.1 0 00163.6-33.37l-53.54-123.45a293.53 293.53 0 01-69.68 19.2zm341.09-58.16a449.08 449.08 0 01-38.22 53.7 316.67 316.67 0 0172.95 104.27c3.64 8.38 6.9 16.83 9.76 25.33a594.5 594.5 0 0055.62-66.22 298.09 298.09 0 00-100.11-117.08zM152.54 410.7a298.22 298.22 0 0019.74 152.77 594.92 594.92 0 0086.35 3.21 320.18 320.18 0 01-13.7-27.78 316.71 316.71 0 01-26.21-120.45 449 449 0 01-66.18-7.75zm416.42-138.93a446.17 446.17 0 01-140.3 103.9l59 136.01a594.5 594.5 0 00161.17-109.5 301.16 301.16 0 00-12.16-33.2 297.63 297.63 0 00-67.71-97.22zm-330.42 147c.83 37.6 8.83 75.62 24.69 112.2a300.99 300.99 0 0017.69 34.49 595.37 595.37 0 00188.46-45.64l-59-136.01a446.54 446.54 0 01-171.84 34.96zm490.98-77.6a614.4 614.4 0 01-58.28 66.97 317.6 317.6 0 01-.26 159.46 736.59 736.59 0 0073.57-60.8 298.32 298.32 0 00-15.03-165.64zM181.8 584.47A298.36 298.36 0 00294.65 706.6a736.2 736.2 0 0092.83-13.43 317.8 317.8 0 01-117.15-107.03 614.17 614.17 0 01-88.53-1.66zm472.75-160.3A614.14 614.14 0 01495.64 530.1l48.33 111.4a745.12 745.12 0 00100.95-55.77c0-.03.02-.06.03-.08a298.92 298.92 0 009.6-161.47zM293.27 584.5a299.18 299.18 0 00124.77 101.55 746.6 746.6 0 00107.63-36.47l-48.33-111.4a615.16 615.16 0 01-184.07 46.32zm442.24-42.63a756.35 756.35 0 01-74.23 56.92 324.85 324.85 0 01-78.13 120.01c75.09-37.13 128.26-102.14 152.36-176.93zm-408.99 181.5c70.12 31.63 152.1 36.35 228.88 7.47a324.65 324.65 0 01-138.66-23.92 756.8 756.8 0 01-90.22 16.44zm305.27-105.72a766.28 766.28 0 01-79.84 42.26l18.8 43.35a303.92 303.92 0 0061.04-85.6zm-181.73 80.33a303.93 303.93 0 00102.37 13.3l-18.8-43.35a767.77 767.77 0 01-83.57 30.05z"/><path fill="#900" d="M450 0C296.44 0 160.78 77.05 79.56 194.56l87 50.25C230.2 157.11 333.44 100 450 100s219.81 57.1 283.44 144.81l87-50.25C739.22 77.05 603.56 0 450 0z"/><path fill="#069" d="M32.19 282.75A448.33 448.33 0 000 450c0 231.5 175.1 422.36 400 447.25V796.37C230.47 772.08 100 626.23 100 450a349 349 0 0119.94-116.63l-87.75-50.62zm835.62 0l-87.75 50.63A349.08 349.08 0 01800 450c0 176.22-130.47 322.08-300 346.38v100.87C724.9 872.35 900 681.5 900 450c0-59.1-11.45-115.53-32.19-167.25z"/></svg><svg width="37" height="37" viewBox="-1 -1 302 302" id="Wikibooks-logo_sister" y="126" xmlns="http://www.w3.org/2000/svg"><path fill="#fdfcf8" fill-rule="evenodd" d="M141.66 103.54c5.27 66.02 16.8 129.94 51.2 191.49l13 .1 82.3-73.42-78.44-198.2-56.54 54-11.52 26.03z"/><path fill="#f4eed7" fill-rule="evenodd" d="M75.84 103.6c5.28 66.03 18.78 130.8 53.18 192.34l20.34.18 61.96-77.72-67.41-194.83-56.54 54.01-11.53 26.03z"/><path fill="#e9ddaf" fill-rule="evenodd" d="M.22 102.2c5.38 69.28 27.01 131.33 52.46 191.7l26.8-.33 70.4-80.04-81.6-191.37-56.54 54.01L.22 102.19z"/><path fill="#5f96d3" d="M213.33 4.06c-27.19 26.3-54.07 52.38-54.07 52.38l9.66 19.65c13.1-12.98 26.26-24.4 38.81-37.09 26.44 58.04 44.45 104.81 66.6 166.65 7.26 20.08 5.78 20.98-11.56 31.84-27.86 13.85-36.67 22.94-69.87 58.26h22.72c27.75-25.1 38.05-33.95 72.8-52.26 12.3-7.1 13.99-16.06 8.94-30-16.26-45.2-51.49-142.6-84.03-209.43z"/><path fill="#2a62a1" fill-rule="evenodd" d="M142.45 4.69C122.57 18.1 107.22 37.43 89.92 54l7.1 22.63c13.54-10.67 25.32-23.54 37.5-35.72l65.65 164.69c3.79 11.15-2.17 21.07-14.15 31.87-14.35 11.53-43.9 38.42-57.29 58.9h20.38c21.38-21.96 25.24-24.94 49.6-46.03 16.34-16.68 31.1-25.22 23.4-46.6L142.45 4.7z"/><path fill="#15304f" fill-rule="evenodd" d="M75.33 3.63c-5.3 1.78-9.71 5.2-13.85 8.8C5.4 66.42 3.14 68.7 3.14 68.7.19 71.43-.06 75.44-.02 79.47l.24 22.72s25.9-25.18 64.57-62.4C85.61 94.01 107.34 147.96 128.73 202c2.93 8.16-4.08 14.85-12.96 23.78-12.28 11.97-37.95 36.62-64.22 69.53h26.34l63.31-69.43c6.02-8.28 13.5-16.37 10.35-23.88L75.33 3.62z"/></svg><svg width="49" height="49" viewBox="-1 -1 1052 592" id="Wikidata-logo_sister" y="163" xmlns="http://www.w3.org/2000/svg"><path fill="#900" d="M120 545h30V45h-30v500zm60 0h90V45h-90v500zM300 45v500h90V45h-90z"/><path fill="#396" d="M840 545h30V45h-30v500zm60-500v500h30V45h-30zM420 545h30V45h-30v500zm60-500v500h30V45h-30z"/><path fill="#069" d="M540 545h90V45h-90v500zm120 0h30V45h-30v500zm60-500v500h90V45h-90z"/></svg><svg width="42" height="42" viewBox="-1 -1 1026 1026" id="Wikimedia-logo_black" y="212" xmlns="http://www.w3.org/2000/svg"><clipPath id="fa"><path d="M0-33l471 471v363h82V438l471-471v1057H0"/></clipPath><g clip-path="url(#fa)"><path d="M511 224a288 288 0 102 0"/><path fill="none" stroke="#000" stroke-width="116" d="M511 102a410 410 0 102 0"/></g><path d="M511 28a158 158 0 102 0z"/></svg><svg width="42" height="42" viewBox="-1 -1 86 86" id="Wikipedia-logo_sister" y="254" xmlns="http://www.w3.org/2000/svg"><path fill="none" opacity=".2" d="M0 0h84v84H0z"/><path opacity=".2" d="M2 12a8 8 0 018-8h64a8 8 0 018 8v64a8 8 0 01-8 8H10a8 8 0 01-8-8z"/><rect x="2.83" y="2.83" width="78.33" height="78.33" rx="7.17" ry="7.17" fill="#fff"/><path fill="#eaecf0" d="M74 3.67A6.34 6.34 0 0180.33 10v64A6.34 6.34 0 0174 80.33H10A6.34 6.34 0 013.67 74V10A6.34 6.34 0 0110 3.67h64M74 2H10a8 8 0 00-8 8v64a8 8 0 008 8h64a8 8 0 008-8V10a8 8 0 00-8-8z"/><path fill="#000222" fill-rule="evenodd" d="M69.73 26.61a5.25 5.25 0 00-3.05 1.22 11.53 11.53 0 00-2.45 4L51.37 61.42q-.13.41-.71.41a.79.79 0 01-.71-.41L42.74 46l-8.3 15.41a.79.79 0 01-.71.41.71.71 0 01-.73-.41l-12.63-29.6A10.35 10.35 0 0017.88 28a6.74 6.74 0 00-3.66-1.35.49.49 0 01-.38-.22.78.78 0 01-.18-.5q0-.72.4-.72 1.69 0 3.53.15t3.23.15q1.54 0 3.63-.15t3.88-.15q.4 0 .4.72t-.25.72a4.9 4.9 0 00-2.66.88 2.35 2.35 0 00-1 2 4.06 4.06 0 00.4 1.55l10.49 24 5.93-11.44-5.53-11.83a15.33 15.33 0 00-2.45-4.08 4.84 4.84 0 00-2.9-1.12.45.45 0 01-.34-.22.82.82 0 01-.16-.5q0-.72.35-.72a28.63 28.63 0 013.1.15 25.75 25.75 0 002.9.15q1.51 0 3.2-.15t3.43-.15q.4 0 .4.72t-.25.72q-3.38.23-3.38 2A6.4 6.4 0 0040.8 31l3.66 7.58 3.63-6.93a5.67 5.67 0 00.76-2.47q0-2.37-3.38-2.53-.3 0-.3-.72a.88.88 0 01.15-.49q.15-.23.3-.23 1.21 0 3 .15t2.77.15q.78 0 2.29-.13 1.92-.18 3.2-.18.3 0 .3.62 0 .82-.55.82a6.25 6.25 0 00-3.16 1.11 14.16 14.16 0 00-3 4.1L45.62 41l6.56 13.66 9.68-23a6.3 6.3 0 00.5-2.32q0-2.53-3.38-2.68-.3 0-.3-.72t.45-.72q1.24 0 2.93.15t2.62.15a24.83 24.83 0 002.57-.15 27 27 0 012.75-.2q.35 0 .35.62a.94.94 0 01-.19.57.53.53 0 01-.43.25z"/></svg><svg width="42" height="42" viewBox="-65.5 -178.5 302 357" id="Wikiquote-logo_sister" y="296" xmlns="http://www.w3.org/2000/svg"><defs><radialGradient id="ha" gradientUnits="userSpaceOnUse" r="59.1" cx="0" cy="0"><stop offset="0%" stop-color="#00003b"/><stop offset="100%" stop-color="#002f64"/></radialGradient><clipPath id="hb"><path d="M-25 0l300 300L575 0 275-300z"/></clipPath></defs><circle r="59.1" fill="url(#ha)"/><g clip-path="url(#hb)" fill="none"><circle r="101" stroke="#003b6f" stroke-width="29"/><circle r="156.5" stroke="#3b6fa0" stroke-width="30.4"/><circle r="215.7" stroke="#6fa0d0" stroke-width="31.4"/></g></svg><svg width="39" height="39" viewBox="-1 -1 412 432" id="Wikisource-logo_sister" y="338" xmlns="http://www.w3.org/2000/svg"><g fill-rule="evenodd"><path fill="#608ab4" d="M203.7 0C135.42.46 75 35.98 38.06 90.23h333.88C334.76 35.63 273.84 0 205.02 0h-1.32z"/><path fill="#375493" d="M26.2 109.84A221.99 221.99 0 000 214.99C0 333.67 91.86 430 205.02 430S410 333.67 410 214.99c0-38.2-9.5-74.05-26.18-105.15H26.21z"/><path fill="#d6dde3" d="M38.06 90.23a216.89 216.89 0 00-11.85 19.6h357.61a217.18 217.18 0 00-11.88-19.6H38.06z"/><path fill="#7bbce5" d="M292.56 24.1c-.85.02-1.76.21-2.73.5-9.13 14.58-9.1 62.88-8.98 73.33h.06c13.52 3 31.42-.45 32.02-13.39 1.03-17.05 2.06-33.58-6.98-44.2-8.26 3.76-6.7-11.5-10.05-14.92-.84-.96-2-1.34-3.33-1.31z"/><path fill="#fff" d="M289.83 24.6c-4.81 1.48-10.68 5.85-13.57 7.26-2.52.27-7.2.08-10.69.97-7.5 1.93-14.32 6.5-18.26 13.7-5.08-14.77-16 3.39-28.94 13.85-7.17-5.4-21.6-16.17-34.85-23.1-10.65 5.39-21.8 23.62-28.44 25.16-6.89 1.29-16.6.53-20.64 5.4-6.72 6.95-8.8 14.9-10.09 22.36 15.76 5.57 32.29 5.74 48.05 3.6 8.95-2.14 15.33.87 24.54.53 27.97 1.2 58.26-2.21 83.9 3.6-.11-10.45-.14-58.75 9-73.32z"/><path fill="#7bbce5" d="M196.43 53.7c3.36 10.12 6.28 20.23 5.16 30.34-1.2 6.25 1.47 5.82 6.46 3.34 4.91-2.66 7.5-5.57 14.73-7.97 5.6-1.54 1.63-5.65-1.04-8.48-7.98-7.56-16.66-12.33-25.31-17.22z"/><path fill="#294584" d="M225.13 109.84c5.88 77.83 58.43 87.4 91.5 71.66-16.53-16.27-10.53-49.44 7.1-49.8 32.64-.8 23.35 59.85 23.36 89.29 17.84-3.61 16.67-70.78 12.88-111.15H225.13z"/><path fill="#e0e9ea" d="M56.13 109.84l1.91 20.1c4.32 7.87 7.53 15.71 6.63 23.58 8.53-2.1 13.61-3.19 18.2 5.5 20.06 12.43 39.12 13.9 57.88 12.07 3.82 45.16 2.7 81.49 1.1 135.47 11.4 18.84 22.8 36.7 34.2 55.53 6.53 11.45 18.01 15.07 27.02 1.53l23.13-10.4v11.5c11.85 2.97 23.57 7.48 18.2 19.76-4.1 7.93-1.8 11.46 9.86 6.16 10.3-5 16.65 2.75 22.03 4.12-7.66-8.12-1.07-24.1-.83-40.6 11-1 23.55-10.92 34.55-11.92 22.6-21.83 26.5-29.96 26.46-58.16 2.27-7.31 5.53-9.24 3.86-21.94 1.3-7.87 3.09-18.15 4.37-26.02l2.58-15.16-.2.03c0-29.44 9.3-90.08-23.34-89.3-17.64.37-23.64 33.54-7.1 49.81a66.45 66.45 0 01-12.2 4.41c1.35 7.68-4.23 15.55-11.53 15.88-7.28-.64-18 6.55-24.79 23.05-10.86 22.78-20.74 2.96-24.7-3.16-5.09-6.72 1.16-12.97-12.79-8.91-9.2 2.83-20.87 4.7-23.66-9.13-11.76-11.89-23.03-22.32-34.79-34.2-4.7-5.57-.79-10.14-.75-12.1v-.2l-.04-.09a1.01 1.01 0 00-.09-.22l-.03-.06-.03-.03a2.76 2.76 0 00-.1-.1l-.12-.09-.07-.03c-.05-.03-.12-.04-.18-.06-4.59-2.88-10.15.59-16.22 3.1-15.83 2.89-22.01.1-23.72-8.23.09-13.76-7.69-12.32-20.4-10.41-36.63 5.2-42.55-7.7-53.23-31.08h-1.07z"/><path fill="#4d8ac0" d="M57.2 109.84c10.67 23.37 16.6 36.27 53.23 31.08 12.7-1.92 20.48-3.35 20.4 10.4 1.7 8.34 7.89 11.12 23.72 8.23 6.06-2.5 11.62-5.97 16.21-3.1l.2.07.05.03.13.1.1.09.02.03.04.06a1.01 1.01 0 01.1.22l.02.1v.18c-.03 1.96-3.94 6.54.76 12.1 11.76 11.89 23.02 22.32 34.79 34.2 2.8 13.84 14.46 11.97 23.66 9.14 13.95-4.06 7.7 2.19 12.79 8.9 3.96 6.13 13.84 25.95 24.7 3.17 6.8-16.5 17.5-23.7 24.8-23.05 7.3-.33 12.87-8.2 11.53-15.88-32.45 8.21-74.12-7.26-79.32-76.07H57.2z"/><path fill="#d6dde3" d="M166.93 199.26c-10.56.68-5.05 35.8-3.9 52.43 1.57 16.37 5.23 12.52 16.72 5.38 5.28 10.66 2.07 16.61-5.4 23.51-5.57 5.23-8.76 13.05-3.93 22.04 1.47 2.45 2.71 3.5 4.43 7.35 1.15 2.29 2.27 4.6 3.42 6.88 1.33 5.06-.17 8.2-2.39 10.91-2.05 2.93-2.45 5.88.22 13.98 1.46 4.7-2.53 10.32 3.65 15.26a37.25 37.25 0 008.17 4.87c-2.38-6.9-2.45-16.86-1.29-25.42.79-8.07 1.34-13.08 8.74-18.57 6.46-3.29 4.66-20.67 5.21-31.01l.22.15v-.15c13.82-2.9 6.13-13.9 1.89-24.45l-33.78-62.9a6.14 6.14 0 00-1.86-.26h-.12z"/><path fill="#608ab4" d="M168.91 199.5l33.78 62.92c4.24 10.55 11.93 21.54-1.89 24.45 1.23 7.36 10.4 13.77 20.56 12.9 10.57-.67 18.26 7.2 21.74 15.14.46-8.76 1.54-17.45 3.68-26.04 1.36-4.25 9.1-8.01 2.67-13.67-26.04-28.53-51.15-50.95-79.32-75.25a9.41 9.41 0 00-1.22-.44z"/><path fill="#236798" d="M200.59 286.87c-.55 10.34 1.24 27.72-5.22 31.01-7.4 5.49-7.95 10.5-8.74 18.57-1.16 8.57-1.1 18.55 1.3 25.45a33.26 33.26 0 007.6 2.2c4.47.4 7.28 1.5 16.71-.23 8.26-.94 13.22-4.96 22.66-6.37 5.15-1.01 8.64-2.97 8.36-10.8-.4-10.68-.7-21.28-.16-31.79-3.48-7.94-11.17-15.8-21.74-15.13-10.05.85-19.12-5.4-20.52-12.66v-.06c-.08-.07-.18-.12-.25-.2z"/><path fill="#608ab4" d="M339.42 276.45c-.87 2.4-2 4.53-2.95 7.63.04 28.2-3.86 36.33-26.46 58.16-.2.05-6.67 15.13-12.16 19.07-9.27 6.81-8.7 13-12.13 20.45-2.5 3.76-5.94 4.37-8.43 3.69-1.55-1.23-3.12-1.8-4.68-3.66-.1 3.04.12 5.82.91 8.25l.1.22v.03c.43.88.84 1.78 1.25 2.66l.07.1v.02c.37.58.8 1.14 1.28 1.66l-.44-.12c9.5 15.1 22.9 19.82 40.1 13.88a90.72 90.72 0 0020.43-12.04c5-4.72 10.95-13.58 1.57-14.16-1.34-.35-2.08-.7-2.45-1.07l-.06-.06c-.04-.04-.07-.11-.1-.16a1.08 1.08 0 01-.1-.21l-.02-.07v-.18c.02-1.35 2.59-3.27.62-7.16-1.34-5.96 4.37-11.6 8.46-13.1l-8.46-18.36c.2-4.01 8.14-6.13 6.85-13.63 2.3-18.85 5.4-46.84-3.2-51.84z"/><path fill="#236798" d="M288.7 202.2c-6.8 1.82-15.01 9.1-20.58 22.63-2.55 5.34-5.05 8.34-7.42 9.73.24 23.26 5.8 39.82 17.28 48.9-3.4 13.45-6.8 32-.62 43.24-10.44-3.29-6.19 17.6-9.27 26.39-5.22 14.62-9.81 13.98-14.71 15.25 4.47 5.09 10.23 10.49 18.85 13.67v.06a1 1 0 00.13.25c.64.97 3.53 2.03 4.93 3.13 2.5.68 5.93.07 8.42-3.7 3.45-7.44 2.87-13.62 12.13-20.44 5.37-3.85 11.68-18.35 12.16-19.07-18.33-10.26-27-29.8-24.04-48.62.86-5.2 4.27-11.02-.3-19.39-5.49-23-2-49.77 3.04-72.04z"/></g></svg><svg height="42" width="42" viewBox="-1 -1 943 1105" id="Wikispecies-logo_sister" y="377" xmlns="http://www.w3.org/2000/svg"><defs><linearGradient id="ja"><stop stop-color="#00090e" offset="0"/><stop stop-color="#082e45" offset=".1"/><stop stop-color="#0a6997" offset=".5"/><stop stop-color="#082e45" offset=".9"/><stop stop-color="#00090e" offset="1"/></linearGradient><linearGradient id="jg"><stop stop-color="#375d72" offset="0"/><stop stop-color="#407b9b" offset=".1"/><stop stop-color="#a0c0cf" offset=".5"/><stop stop-color="#407b9b" offset=".9"/><stop stop-color="#375d72" offset="1"/></linearGradient><linearGradient id="jc"><stop stop-color="#0f3119" offset="0"/><stop stop-color="#01703b" offset=".1"/><stop stop-color="#89c4ae" offset=".5"/><stop stop-color="#01703b" offset=".9"/><stop stop-color="#0f3119" offset="1"/></linearGradient><linearGradient id="je"><stop stop-color="#476c5a" offset="0"/><stop stop-color="#52a27d" offset=".1"/><stop stop-color="#a7d2be" offset=".5"/><stop stop-color="#52a27d" offset=".9"/><stop stop-color="#476c5a" offset="1"/></linearGradient><radialGradient id="jj" gradientUnits="userSpaceOnUse" cx="510" r="210" cy="110"><stop stop-color="#d8aba5" offset=".04"/><stop stop-color="#ad604e" offset=".4"/><stop stop-color="#9c4029" offset=".6"/><stop stop-color="#92331f" offset=".7"/><stop stop-color="#43180f" offset="1"/></radialGradient><radialGradient id="ji" gradientUnits="userSpaceOnUse" cx="470.5" r="430" cy="650"><stop stop-color="#4f8fb3" offset=".8"/><stop stop-color="#0c5178" offset=".95"/><stop stop-color="#002d4a" offset="1"/></radialGradient><clipPath id="jh"><path d="M0 199l470.5 428L941 199v904H0z"/></clipPath></defs><g stroke-width="0"><g fill="url(#ja)"><path id="jf" d="M213 218c39 137 436 101 436 202v90c0-111-404.5-64.7-436-200"/></g><g fill="url(#ja)"><path id="jd" d="M649 800c0-94.5-411-72.4-411-192v90c0 112.5 411 89.5 411 192"/></g><use xlink:href="#jb" transform="matrix(-1 0 0 1 941 0)" fill="url(#jc)"/><use xlink:href="#jd" transform="matrix(-1 0 0 1 941 0)" fill="url(#je)"/><use xlink:href="#jf" transform="matrix(-1 0 0 1 941 0)" fill="url(#je)"/><g fill="url(#jg)"><path id="jb" d="M649 420c0 99.7-411 81-411 188v90c0-103.7 411-91.8 411-188"/></g></g><circle stroke-width="100" clip-path="url(#jh)" stroke="url(#ji)" cy="628" cx="470.5" r="388.5" fill="none"/><circle stroke="#555" cy="161" cx="470.5" r="125" fill="url(#jj)"/></svg><svg width="43" height="37" viewBox="-1 -1 43 37" id="Wikiversity-logo_sister" y="419" xmlns="http://www.w3.org/2000/svg"><path fill="#006499" d="M20.36.06c-.47.08-.97.42-1.45 1.07-.4.55-.8 1.3-1.14 2.23h5.16a9.37 9.37 0 00-1.15-2.25c-.48-.63-.97-.97-1.4-1.04zm1.6.14c.14.15.28.3.4.47.5.7.96 1.6 1.35 2.7h3.6A9.81 9.81 0 0021.96.2zm-3.24 0c-2 .4-3.82 1.53-5.3 3.16h3.56A9.91 9.91 0 0118.72.19zm-2.65.16c-1.9.62-3.64 1.65-5.1 3h1.48a11.46 11.46 0 013.62-3zm12.2 3h1.5A13.82 13.82 0 0024.68.4c1.34.7 2.54 1.7 3.56 2.96zM10.2 4.1a13.77 13.77 0 00-2.6 4.04h2.3a14.8 14.8 0 012-4.04h-1.7zm.47 4.04h5.2c.2-1.5.5-2.86.86-4.04H12.8a14.64 14.64 0 00-2.13 4.04zM17.5 4.1a26.65 26.65 0 00-.88 4.04h7.46a25.37 25.37 0 00-.9-4.04H17.5zm6.46 0c.36 1.18.66 2.54.87 4.04h5.2A13.65 13.65 0 0027.9 4.1h-3.94zm4.86 0c.83 1.2 1.5 2.55 2 4.04h2.3a13.54 13.54 0 00-2.63-4.04H28.8zM7.3 8.87a14.13 14.13 0 00-.82 4.73h2.57c0-1.65.22-3.24.62-4.73H7.3zm3.14 0a17.32 17.32 0 00-.65 4.73h5.72c0-1.67.1-3.26.26-4.73h-5.34zm6.08 0a41.39 41.39 0 00-.26 4.73h8.2c0-1.67-.1-3.26-.28-4.73h-7.66zm8.4 0c.18 1.48.27 3.06.27 4.73h5.72c0-1.66-.23-3.25-.65-4.73h-5.34zm6.12 0c.4 1.5.62 3.08.62 4.73h2.57c0-1.6-.28-3.2-.83-4.73h-2.36zM0 15v1.42h41V15H0zm1.4 2.9v14.02h5.44v-14H1.4zm10.83 0v14.02h5.43v-14h-5.43zm10.82 0v14.02h5.43v-14h-5.43zm10.82 0v14.02h5.44v-14h-5.43zM0 34.48h41v-1.4H0v1.4z"/></svg><svg width="36" height="36" viewBox="-1 -1 194.5 194.5" id="Wikivoyage-logo_sister" y="456" xmlns="http://www.w3.org/2000/svg"><path fill="#396" d="M91.48 116.65l47.92 72.57 5.2-86.8a55 55 0 01-53.12 14.23z"/><path fill="#900" d="M150.33 81.06l38.89-77.78-77.78 38.89a55 55 0 0138.89 38.9z"/><path fill="#069" d="M90.09 47.9L3.28 53.1l72.57 47.92a55 55 0 0114.24-53.13z"/></svg><svg width="12" height="8" viewBox="-1 -1 12 8" id="arrow-down" y="492" xmlns="http://www.w3.org/2000/svg"><path fill="none" stroke="#505356" stroke-width="1.11" d="M.56.55L5 4.9 9.44.54"/></svg><svg width="14" height="14" viewBox="-1 -1 14 14" id="arrow-down-blue" y="500" xmlns="http://www.w3.org/2000/svg"><path fill="#36d" d="M10.085 2.943L6.05 6.803l-3.947-3.86L1.05 3.996l5 5 5-5z"/></svg><svg width="22" height="22" viewBox="-1 -1 22 22" id="language-icon" y="514" xmlns="http://www.w3.org/2000/svg"><path fill="#36d" fill-rule="evenodd" d="M20 18h-1.44a.61.61 0 01-.4-.12.81.81 0 01-.23-.31L17 15h-5l-1 2.54a.77.77 0 01-.22.3.59.59 0 01-.4.14H9l4.55-11.47h1.89zm-3.53-4.31L14.89 9.5a11.62 11.62 0 01-.39-1.24q-.09.37-.19.69l-.19.56-1.58 4.19zm-6.3-1.58a13.43 13.43 0 01-2.91-1.41 11.46 11.46 0 002.81-5.37H12V4H7.31a4 4 0 00-.2-.56C6.87 2.79 6.6 2 6.6 2l-1.47.5s.4.89.6 1.5H0v1.33h2.15A11.23 11.23 0 005 10.7a17.19 17.19 0 01-5 2.1q.56.82.87 1.38a23.28 23.28 0 005.22-2.51 15.64 15.64 0 003.56 1.77zM3.63 5.33h4.91a8.11 8.11 0 01-2.45 4.45 9.11 9.11 0 01-2.46-4.45z"/></svg><svg width="58" height="58" viewBox="-1 -1 58 58" id="noimage" y="536" xmlns="http://www.w3.org/2000/svg"><path fill="#eaecf0" d="M0 0h56v56H0z"/><path fill="#72777d" d="M36.4 13.5H17.8v24.9c0 1.4.9 2.3 2.3 2.3h18.7v-25c.1-1.4-1-2.2-2.4-2.2zM30.2 17h5.1v6.4h-5.1V17zm-8.8 0h6v1.8h-6V17zm0 4.6h6v1.8h-6v-1.8zm0 15.5v-1.8h13.8v1.8H21.4zm13.8-4.5H21.4v-1.8h13.8v1.8zm0-4.7H21.4v-1.8h13.8v1.8z"/></svg><svg width="22" height="22" viewBox="-1 -1 22 22" id="search-icon" y="594" xmlns="http://www.w3.org/2000/svg"><path fill="#fff" d="M7.5 13c3.04 0 5.5-2.46 5.5-5.5S10.54 2 7.5 2 2 4.46 2 7.5 4.46 13 7.5 13zm4.55.46A7.432 7.432 0 017.5 15C3.36 15 0 11.64 0 7.5S3.36 0 7.5 0C11.64 0 15 3.36 15 7.5c0 1.71-.57 3.29-1.54 4.55l6.49 6.49-1.41 1.41-6.49-6.49z"/></svg></svg>